<?xml version="1.0" encoding="UTF-8"?>
<!DOCTYPE svg PUBLIC "-//W3C//DTD SVG 1.1//EN" "http://www.w3.org/Graphics/SVG/1.1/DTD/svg11.dtd">
<svg xmlns="http://www.w3.org/2000/svg" version="1.1" width="850px" height="326px" style="shape-rendering:geometricPrecision; text-rendering:geometricPrecision; image-rendering:optimizeQuality; fill-rule:evenodd; clip-rule:evenodd" xmlns:xlink="http://www.w3.org/1999/xlink">
<g><path style="opacity:0.278" fill="#fefefe" d="M 12.5,1.5 C 15.1873,1.33591 17.854,1.50258 20.5,2C 22.6921,5.69217 25.6921,8.52551 29.5,10.5C 32.6247,7.87744 35.6247,5.04411 38.5,2C 41.634,1.20988 44.634,1.54321 47.5,3C 49.3333,6.16667 51.8333,8.66667 55,10.5C 58.4903,8.00869 61.657,5.17536 64.5,2C 66.8333,1.33333 69.1667,1.33333 71.5,2C 74.3688,5.20407 77.5354,8.0374 81,10.5C 84.4903,8.00869 87.657,5.17536 90.5,2C 92.8333,1.33333 95.1667,1.33333 97.5,2C 100.375,5.04411 103.375,7.87744 106.5,10.5C 109.926,8.81926 112.593,6.31926 114.5,3C 117.366,1.54321 120.366,1.20988 123.5,2C 126.402,5.07199 129.402,7.90532 132.5,10.5C 136.036,8.28852 139.036,5.45519 141.5,2C 144.167,1.33333 146.833,1.33333 149.5,2C 151.692,5.69217 154.692,8.52551 158.5,10.5C 161.598,7.90532 164.598,5.07199 167.5,2C 170.167,1.33333 172.833,1.33333 175.5,2C 177.692,5.69217 180.692,8.52551 184.5,10.5C 187.612,7.76473 190.612,4.9314 193.5,2C 196.23,1.27161 198.897,1.43828 201.5,2.5C 203.854,5.688 206.688,8.35467 210,10.5C 213.49,8.00869 216.657,5.17536 219.5,2C 221.833,1.33333 224.167,1.33333 226.5,2C 229.369,5.20407 232.535,8.0374 236,10.5C 239.167,8.66667 241.667,6.16667 243.5,3C 246.366,1.54321 249.366,1.20988 252.5,2C 255.375,5.04411 258.375,7.87744 261.5,10.5C 265.036,8.28852 268.036,5.45519 270.5,2C 273.167,1.33333 275.833,1.33333 278.5,2C 280.692,5.69217 283.692,8.52551 287.5,10.5C 291.036,8.28852 294.036,5.45519 296.5,2C 299.167,1.33333 301.833,1.33333 304.5,2C 306.692,5.69217 309.692,8.52551 313.5,10.5C 316.612,7.76473 319.612,4.9314 322.5,2C 325.634,1.20988 328.634,1.54321 331.5,3C 333.333,6.16667 335.833,8.66667 339,10.5C 342.49,8.00869 345.657,5.17536 348.5,2C 350.833,1.33333 353.167,1.33333 355.5,2C 358.369,5.20407 361.535,8.0374 365,10.5C 368.312,8.35467 371.146,5.688 373.5,2.5C 376.103,1.43828 378.77,1.27161 381.5,2C 384.375,5.04411 387.375,7.87744 390.5,10.5C 393.926,8.81926 396.593,6.31926 398.5,3C 401.366,1.54321 404.366,1.20988 407.5,2C 409.964,5.45519 412.964,8.28852 416.5,10.5C 420.036,8.28852 423.036,5.45519 425.5,2C 428.167,1.33333 430.833,1.33333 433.5,2C 435.692,5.69217 438.692,8.52551 442.5,10.5C 445.625,7.87744 448.625,5.04411 451.5,2C 454.634,1.20988 457.634,1.54321 460.5,3C 462.36,6.3603 465.027,8.8603 468.5,10.5C 471.612,7.76473 474.612,4.9314 477.5,2C 480.23,1.27161 482.897,1.43828 485.5,2.5C 487.854,5.688 490.688,8.35467 494,10.5C 497.49,8.00869 500.657,5.17536 503.5,2C 505.833,1.33333 508.167,1.33333 510.5,2C 513.375,5.04411 516.375,7.87744 519.5,10.5C 522.926,8.81926 525.593,6.31926 527.5,3C 530.366,1.54321 533.366,1.20988 536.5,2C 539.402,5.07199 542.402,7.90532 545.5,10.5C 549.036,8.28852 552.036,5.45519 554.5,2C 557.167,1.33333 559.833,1.33333 562.5,2C 564.692,5.69217 567.692,8.52551 571.5,10.5C 574.598,7.90532 577.598,5.07199 580.5,2C 583.167,1.33333 585.833,1.33333 588.5,2C 590.692,5.69217 593.692,8.52551 597.5,10.5C 600.612,7.76473 603.612,4.9314 606.5,2C 609.634,1.20988 612.634,1.54321 615.5,3C 617.333,6.16667 619.833,8.66667 623,10.5C 626.49,8.00869 629.657,5.17536 632.5,2C 634.833,1.33333 637.167,1.33333 639.5,2C 642.369,5.20407 645.535,8.0374 649,10.5C 652.167,8.66667 654.667,6.16667 656.5,3C 659.366,1.54321 662.366,1.20988 665.5,2C 668.402,5.07199 671.402,7.90532 674.5,10.5C 678.036,8.28852 681.036,5.45519 683.5,2C 686.167,1.33333 688.833,1.33333 691.5,2C 693.964,5.45519 696.964,8.28852 700.5,10.5C 704.036,8.28852 707.036,5.45519 709.5,2C 712.167,1.33333 714.833,1.33333 717.5,2C 719.692,5.69217 722.692,8.52551 726.5,10.5C 729.604,7.8085 732.604,4.97516 735.5,2C 738.634,1.20988 741.634,1.54321 744.5,3C 746.333,6.16667 748.833,8.66667 752,10.5C 755.49,8.00869 758.657,5.17536 761.5,2C 763.833,1.33333 766.167,1.33333 768.5,2C 771.369,5.20407 774.535,8.0374 778,10.5C 781.312,8.35467 784.146,5.688 786.5,2.5C 789.103,1.43828 791.77,1.27161 794.5,2C 797.375,5.04411 800.375,7.87744 803.5,10.5C 806.926,8.81926 809.593,6.31926 811.5,3C 814.366,1.54321 817.366,1.20988 820.5,2C 823.402,5.07199 826.402,7.90532 829.5,10.5C 832.288,9.20782 834.622,7.37448 836.5,5C 844.766,3.03623 848.266,6.20289 847,14.5C 843.632,17.3691 840.798,20.7024 838.5,24.5C 840.595,28.0996 843.262,31.2663 846.5,34C 848.065,37.5074 847.565,40.6741 845,43.5C 836.479,48.7235 836.812,53.7235 846,58.5C 847.85,61.5368 847.85,64.5368 846,67.5C 842.848,69.8101 840.348,72.6435 838.5,76C 840.592,80.0926 843.425,83.5926 847,86.5C 847.706,88.9712 847.373,91.3046 846,93.5C 843.667,95.5 841.333,97.5 839,99.5C 838.373,104.245 840.373,107.578 845,109.5C 847.816,112.58 848.149,115.913 846,119.5C 836.432,124.395 836.099,129.728 845,135.5C 846.728,138.759 846.894,142.092 845.5,145.5C 836.382,150.616 836.215,155.949 845,161.5C 846.457,164.366 846.79,167.366 846,170.5C 842.545,172.964 839.711,175.964 837.5,179.5C 839.711,183.036 842.545,186.036 846,188.5C 846.667,191.167 846.667,193.833 846,196.5C 842.308,198.692 839.474,201.692 837.5,205.5C 839.478,208.645 841.978,211.312 845,213.5C 846.422,216.03 846.755,218.697 846,221.5C 842.634,224.368 839.8,227.701 837.5,231.5C 839.181,234.926 841.681,237.593 845,239.5C 846.422,242.03 846.755,244.697 846,247.5C 842.754,250.406 839.921,253.573 837.5,257C 839.95,260.453 842.783,263.62 846,266.5C 846.755,269.303 846.422,271.97 845,274.5C 841.609,276.389 839.109,279.055 837.5,282.5C 839.433,285.936 841.933,288.936 845,291.5C 846.373,293.695 846.706,296.029 846,298.5C 844.272,300.842 842.605,303.175 841,305.5C 840.667,305.167 840.333,304.833 840,304.5C 839.009,305.939 837.676,306.939 836,307.5C 834.603,315.615 830.103,318.115 822.5,315C 820.64,311.64 817.973,309.14 814.5,307.5C 811.074,309.181 808.407,311.681 806.5,315C 803.97,316.422 801.303,316.755 798.5,316C 795.607,312.604 792.274,309.771 788.5,307.5C 785.355,309.478 782.688,311.978 780.5,315C 777.5,317 774.5,317 771.5,315C 768.984,312.317 766.317,309.817 763.5,307.5C 759.701,309.8 756.368,312.634 753.5,316C 750.697,316.755 748.03,316.422 745.5,315C 743.593,311.681 740.926,309.181 737.5,307.5C 734.027,309.14 731.36,311.64 729.5,315C 726.634,316.457 723.634,316.79 720.5,316C 718.308,312.308 715.308,309.474 711.5,307.5C 707.692,309.474 704.692,312.308 702.5,316C 699.366,316.79 696.366,316.457 693.5,315C 691.64,311.64 688.973,309.14 685.5,307.5C 681.964,309.711 678.964,312.545 676.5,316C 673.77,316.728 671.103,316.562 668.5,315.5C 666.12,312.119 663.12,309.453 659.5,307.5C 656.349,310.15 653.349,312.984 650.5,316C 648.167,316.667 645.833,316.667 643.5,316C 640.651,312.984 637.651,310.15 634.5,307.5C 630.701,309.8 627.368,312.634 624.5,316C 622.167,316.667 619.833,316.667 617.5,316C 614.651,312.984 611.651,310.15 608.5,307.5C 604.864,309.471 601.864,312.137 599.5,315.5C 596.897,316.562 594.23,316.728 591.5,316C 589.308,312.308 586.308,309.474 582.5,307.5C 579.074,309.181 576.407,311.681 574.5,315C 571.634,316.457 568.634,316.79 565.5,316C 563.036,312.545 560.036,309.711 556.5,307.5C 552.964,309.711 549.964,312.545 547.5,316C 544.366,316.79 541.366,316.457 538.5,315C 536.64,311.64 533.973,309.14 530.5,307.5C 527.375,310.123 524.375,312.956 521.5,316C 519.167,316.667 516.833,316.667 514.5,316C 511.607,312.604 508.274,309.771 504.5,307.5C 501.323,310.178 498.323,313.012 495.5,316C 493.167,316.667 490.833,316.667 488.5,316C 485.651,312.984 482.651,310.15 479.5,307.5C 475.701,309.8 472.368,312.634 469.5,316C 467.167,316.667 464.833,316.667 462.5,316C 460.036,312.545 457.036,309.711 453.5,307.5C 450.027,309.14 447.36,311.64 445.5,315C 442.634,316.457 439.634,316.79 436.5,316C 434.126,313.961 432.126,311.628 430.5,309C 428.5,308.333 426.5,308.333 424.5,309C 417.918,318.923 411.251,318.923 404.5,309C 402.5,308.333 400.5,308.333 398.5,309C 391.969,318.934 385.302,318.934 378.5,309C 376.833,308.333 375.167,308.333 373.5,309C 370.759,312.768 367.259,315.268 363,316.5C 358.741,315.268 355.241,312.768 352.5,309C 350.833,308.333 349.167,308.333 347.5,309C 340.909,318.737 334.243,318.904 327.5,309.5C 325.568,308.48 323.568,308.313 321.5,309C 319.316,311.016 317.316,313.183 315.5,315.5C 309.348,318.022 305.015,316.189 302.5,310C 300.305,308.627 297.971,308.294 295.5,309C 293.5,311.333 291.5,313.667 289.5,316C 283.291,318.02 278.957,316.02 276.5,310C 273.833,308 271.167,308 268.5,310C 265.56,316.469 260.893,318.136 254.5,315C 252.891,311.719 250.391,309.553 247,308.5C 243.301,310.184 240.135,312.684 237.5,316C 235.167,316.667 232.833,316.667 230.5,316C 227.728,314.14 225.395,311.806 223.5,309C 221.833,308.333 220.167,308.333 218.5,309C 215.759,312.768 212.259,315.268 208,316.5C 203.741,315.268 200.241,312.768 197.5,309C 195.833,308.333 194.167,308.333 192.5,309C 189.759,312.768 186.259,315.268 182,316.5C 178.06,315.906 175.226,313.739 173.5,310C 171.305,308.627 168.971,308.294 166.5,309C 164.833,311 163.167,313 161.5,315C 155.107,318.136 150.44,316.469 147.5,310C 144.662,307.88 141.996,308.047 139.5,310.5C 133.325,318.55 127.325,318.383 121.5,310C 120.271,309.219 118.938,308.719 117.5,308.5C 114.089,310.403 111.089,312.903 108.5,316C 105.366,316.79 102.366,316.457 99.5,315C 94.0924,306.3 88.759,306.467 83.5,315.5C 80.5,316.833 77.5,316.833 74.5,315.5C 72.3751,312.199 69.5418,309.866 66,308.5C 62.2767,310.215 59.1101,312.715 56.5,316C 54.1667,316.667 51.8333,316.667 49.5,316C 47.2189,312.564 44.2189,310.064 40.5,308.5C 36.796,309.369 34.1293,311.536 32.5,315C 25.2415,318.948 18.7415,318.114 13,312.5C 10.6179,308.586 11.2846,305.252 15,302.5C 15.6667,301.5 15.6667,300.5 15,299.5C 13,296.167 10.3333,293.5 7,291.5C 6.20988,288.366 6.54321,285.366 8,282.5C 11.5078,280.835 13.6744,278.168 14.5,274.5C 12.6983,271.173 10.1983,268.173 7,265.5C 6.33333,263.167 6.33333,260.833 7,258.5C 8.86021,255.728 11.1935,253.395 14,251.5C 14.6667,249.833 14.6667,248.167 14,246.5C 11.9835,244.316 9.81685,242.316 7.5,240.5C 6.42517,237.562 6.2585,234.562 7,231.5C 16.4768,226.515 16.8101,221.181 8,215.5C 5.80998,213.217 5.14331,210.551 6,207.5C 9.39785,204.606 12.2312,201.272 14.5,197.5C 13.2912,193.455 10.7912,190.455 7,188.5C 5.14971,185.537 5.14971,182.537 7,179.5C 10.3907,177.611 12.8907,174.945 14.5,171.5C 12.2608,167.753 9.42745,164.42 6,161.5C 5.33333,159.5 5.33333,157.5 6,155.5C 9.21713,152.62 12.0505,149.453 14.5,146C 13.0714,142.237 10.5714,139.404 7,137.5C 5.57834,134.97 5.24501,132.303 6,129.5C 9.39607,126.607 12.2294,123.274 14.5,119.5C 12.1876,116.021 9.35423,113.021 6,110.5C 5.33333,108.167 5.33333,105.833 6,103.5C 9.01624,100.651 11.8496,97.6511 14.5,94.5C 12.1998,90.7009 9.3665,87.3676 6,84.5C 5.33333,82.1667 5.33333,79.8333 6,77.5C 9.31566,74.8653 11.8157,71.6986 13.5,68C 12.4475,64.6088 10.2808,62.1088 7,60.5C 5.54321,57.634 5.20988,54.634 6,51.5C 9.44421,49.228 11.9442,46.228 13.5,42.5C 13.2811,41.062 12.7811,39.7287 12,38.5C 1.94875,32.1642 2.11541,25.9976 12.5,20C 7.27413,13.6921 7.27413,7.52541 12.5,1.5 Z"/></g>
</svg>
